<svg width="512" height="128" viewBox="0 0 512 128" fill="none" xmlns="http://www.w3.org/2000/svg">
<rect width="512" height="128" fill="#F5F5F5"/>
<g clip-path="url(#clip0_0_1)">
<rect width="512" height="128" fill="#111827"/>
<path d="M79.3595 87.0995L63.8796 102.579C58.5261 107.933 52.0761 110.608 44.5297 110.606C36.9832 110.603 30.5332 107.928 25.1797 102.579C19.8263 97.2311 17.1508 90.7811 17.1534 83.2295C17.156 75.6779 19.8314 69.2279 25.1797 63.8796L40.6597 48.3996L48.3996 56.1396L32.9197 71.6195C29.6947 74.8445 28.0822 78.7145 28.0822 83.2295C28.0822 87.7445 29.6947 91.6144 32.9197 94.8394C36.1447 98.0644 40.0147 99.6769 44.5297 99.6769C49.0446 99.6769 52.9146 98.0644 56.1396 94.8394L71.6195 79.3595L79.3595 87.0995ZM52.2696 83.2295L44.5297 75.4895L75.4895 44.5297L83.2295 52.2696L52.2696 83.2295ZM87.0995 79.3595L79.3595 71.6195L94.8394 56.1396C98.0644 52.9146 99.6769 49.0446 99.6769 44.5297C99.6769 40.0147 98.0644 36.1447 94.8394 32.9197C91.6144 29.6947 87.7445 28.0822 83.2295 28.0822C78.7145 28.0822 74.8445 29.6947 71.6195 32.9197L56.1396 48.3996L48.3996 40.6597L63.8796 25.1798C69.233 19.8263 75.6843 17.1495 83.2333 17.1495C90.7824 17.1495 97.2311 19.8263 102.579 25.1798C107.928 30.5332 110.604 36.9845 110.61 44.5335C110.615 52.0826 107.938 58.5313 102.579 63.8796L87.0995 79.3595Z" fill="#4F46E5"/>
<path d="M148.496 96.5987C143.056 96.5987 138.384 95.6707 134.48 93.8147C130.64 91.9587 127.152 89.1747 124.016 85.4627L132.656 76.8227C134.64 79.4467 136.944 81.4947 139.568 82.9667C142.192 84.3747 145.392 85.0787 149.168 85.0787C152.56 85.0787 155.248 84.4067 157.232 83.0627C159.28 81.7187 160.304 79.8627 160.304 77.4947C160.304 75.4467 159.728 73.7827 158.576 72.5027C157.424 71.2227 155.888 70.1347 153.968 69.2387C152.112 68.3427 150.032 67.5427 147.728 66.8387C145.488 66.0707 143.216 65.2067 140.912 64.2467C138.672 63.2867 136.592 62.1027 134.672 60.6947C132.816 59.2227 131.312 57.3667 130.16 55.1267C129.008 52.8227 128.432 49.9427 128.432 46.4867C128.432 42.3907 129.424 38.9027 131.408 36.0227C133.392 33.1427 136.112 30.9347 139.568 29.3987C143.024 27.8627 146.928 27.0947 151.28 27.0947C155.888 27.0947 160.048 27.9587 163.76 29.6867C167.472 31.4147 170.512 33.6547 172.88 36.4067L164.24 45.0467C162.256 42.8707 160.208 41.2707 158.096 40.2467C156.048 39.2227 153.712 38.7107 151.088 38.7107C148.08 38.7107 145.712 39.2867 143.984 40.4387C142.256 41.5907 141.392 43.2547 141.392 45.4307C141.392 47.2867 141.968 48.7907 143.12 49.9427C144.272 51.0947 145.776 52.0867 147.632 52.9187C149.552 53.7507 151.632 54.5507 153.872 55.3187C156.176 56.0867 158.448 56.9507 160.688 57.9107C162.992 58.8707 165.072 60.1187 166.928 61.6547C168.848 63.1907 170.384 65.1747 171.536 67.6067C172.688 69.9747 173.264 72.9187 173.264 76.4387C173.264 82.7107 171.056 87.6387 166.64 91.2227C162.224 94.8067 156.176 96.5987 148.496 96.5987ZM213.424 95.6387V69.0467C213.424 66.2947 212.56 64.0547 210.832 62.3267C209.104 60.5987 206.864 59.7347 204.112 59.7347C202.32 59.7347 200.72 60.1187 199.312 60.8867C197.904 61.6547 196.784 62.7427 195.952 64.1507C195.184 65.5587 194.8 67.1907 194.8 69.0467L189.904 66.5507C189.904 62.9027 190.672 59.7347 192.208 57.0467C193.744 54.2947 195.856 52.1507 198.544 50.6147C201.296 49.0787 204.432 48.3107 207.952 48.3107C211.472 48.3107 214.576 49.0787 217.264 50.6147C220.016 52.1507 222.16 54.2627 223.696 56.9507C225.232 59.6387 226 62.7427 226 66.2627V95.6387H213.424ZM182.224 95.6387V26.2307H194.8V95.6387H182.224ZM257.923 96.5987C253.251 96.5987 249.027 95.5427 245.251 93.4307C241.539 91.2547 238.563 88.3427 236.323 84.6947C234.147 80.9827 233.059 76.8547 233.059 72.3107C233.059 67.7667 234.147 63.7027 236.323 60.1187C238.499 56.4707 241.475 53.5907 245.251 51.4787C249.027 49.3027 253.219 48.2147 257.827 48.2147C262.563 48.2147 266.787 49.3027 270.499 51.4787C274.275 53.5907 277.251 56.4707 279.427 60.1187C281.603 63.7027 282.691 67.7667 282.691 72.3107C282.691 76.8547 281.603 80.9827 279.427 84.6947C277.251 88.3427 274.275 91.2547 270.499 93.4307C266.787 95.5427 262.595 96.5987 257.923 96.5987ZM257.827 84.8867C260.195 84.8867 262.275 84.3747 264.067 83.3507C265.923 82.2627 267.331 80.7907 268.291 78.9347C269.315 77.0147 269.827 74.8387 269.827 72.4067C269.827 69.9747 269.315 67.8307 268.291 65.9747C267.267 64.1187 265.859 62.6787 264.067 61.6547C262.275 60.5667 260.195 60.0227 257.827 60.0227C255.523 60.0227 253.475 60.5667 251.683 61.6547C249.891 62.6787 248.483 64.1187 247.459 65.9747C246.435 67.8307 245.923 69.9747 245.923 72.4067C245.923 74.8387 246.435 77.0147 247.459 78.9347C248.483 80.7907 249.891 82.2627 251.683 83.3507C253.475 84.3747 255.523 84.8867 257.827 84.8867ZM290.787 95.6387V49.2707H303.363V95.6387H290.787ZM303.363 70.0067L298.467 66.7427C299.043 61.0467 300.707 56.5667 303.459 53.3027C306.211 49.9747 310.179 48.3107 315.363 48.3107C317.603 48.3107 319.619 48.6947 321.411 49.4627C323.203 50.1667 324.835 51.3507 326.307 53.0147L318.435 62.0387C317.731 61.2707 316.867 60.6947 315.843 60.3107C314.883 59.9267 313.763 59.7347 312.483 59.7347C309.795 59.7347 307.587 60.5987 305.859 62.3267C304.195 63.9907 303.363 66.5507 303.363 70.0067ZM337.822 95.6387V29.9747H350.398V95.6387H337.822ZM326.974 60.3107V49.2707H361.246V60.3107H326.974ZM368.318 95.6387V26.2307H380.894V95.6387H368.318ZM392.037 95.6387V49.2707H404.709V95.6387H392.037ZM398.373 41.7827C396.325 41.7827 394.629 41.1107 393.285 39.7667C391.941 38.3587 391.269 36.6307 391.269 34.5827C391.269 32.5987 391.941 30.9027 393.285 29.4947C394.629 28.0867 396.325 27.3827 398.373 27.3827C400.485 27.3827 402.181 28.0867 403.461 29.4947C404.805 30.9027 405.477 32.5987 405.477 34.5827C405.477 36.6307 404.805 38.3587 403.461 39.7667C402.181 41.1107 400.485 41.7827 398.373 41.7827ZM421.993 95.6387V44.2787C421.993 40.5667 422.793 37.3027 424.393 34.4867C425.993 31.6067 428.265 29.3347 431.209 27.6707C434.153 26.0067 437.609 25.1747 441.577 25.1747C444.585 25.1747 447.177 25.6867 449.353 26.7107C451.529 27.7347 453.481 29.1427 455.209 30.9347L447.241 38.9987C446.537 38.2947 445.769 37.7507 444.937 37.3667C444.105 36.9827 443.049 36.7907 441.769 36.7907C439.465 36.7907 437.673 37.4307 436.393 38.7107C435.177 39.9267 434.569 41.6867 434.569 43.9907V95.6387H421.993ZM411.241 60.3107V49.2707H448.297V60.3107H411.241ZM469.535 96.0227L450.143 49.2707H463.775L476.639 84.9827H472.031L485.375 49.2707H499.103L478.463 96.0227H469.535ZM456.671 115.031L470.783 85.1747L478.463 96.0227L470.015 115.031H456.671Z" fill="url(#paint0_linear_0_1)"/>
</g>
<defs>
<linearGradient id="paint0_linear_0_1" x1="501" y1="63.6387" x2="122" y2="63.6387" gradientUnits="userSpaceOnUse">
<stop stop-color="#06B6D4"/>
<stop offset="0.5" stop-color="#7C3AED"/>
<stop offset="1" stop-color="#4F46E5"/>
</linearGradient>
<clipPath id="clip0_0_1">
<rect width="512" height="128" fill="white"/>
</clipPath>
</defs>
</svg>
