<svg width="1024" height="1024" viewBox="0 0 1024 1024" fill="none" xmlns="http://www.w3.org/2000/svg">
<rect width="1024" height="1024" fill="#F5F5F5"/>
<g clip-path="url(#clip0_3_6)">
<rect width="1024" height="1024" fill="#111827"/>
<path d="M640.795 705.137L512.11 833.822C467.606 878.326 413.988 900.567 351.254 900.546C288.52 900.524 234.901 878.283 190.398 833.822C145.894 789.362 123.653 735.743 123.674 672.966C123.696 610.189 145.937 556.571 190.397 512.11L319.083 383.425L383.425 447.767L254.74 576.452C227.931 603.262 214.526 635.433 214.526 672.966C214.526 710.499 227.931 742.671 254.74 769.48C281.549 796.289 313.721 809.694 351.254 809.694C388.787 809.694 420.958 796.289 447.768 769.48L576.453 640.795L640.795 705.137ZM415.596 672.966L351.254 608.624L608.624 351.254L672.966 415.596L415.596 672.966ZM705.138 640.795L640.795 576.452L769.48 447.767C796.289 420.958 809.694 388.787 809.694 351.254C809.694 313.721 796.289 281.549 769.48 254.74C742.671 227.931 710.499 214.526 672.966 214.526C635.433 214.526 603.262 227.931 576.453 254.74L447.768 383.425L383.425 319.082L512.11 190.397C556.614 145.894 610.243 123.642 672.998 123.642C735.754 123.642 789.362 145.894 833.823 190.397C878.283 234.901 900.535 288.531 900.578 351.286C900.621 414.041 878.369 467.649 833.823 512.11L705.138 640.795Z" fill="#4F46E5"/>
</g>
<defs>
<clipPath id="clip0_3_6">
<rect width="1024" height="1024" fill="white"/>
</clipPath>
</defs>
</svg>
